<?xml version="1.0" encoding="UTF-8"?>
<!--Generator: Apple Native CoreSVG 326-->
<!DOCTYPE svg
PUBLIC "-//W3C//DTD SVG 1.1//EN"
       "http://www.w3.org/Graphics/SVG/1.1/DTD/svg11.dtd">
<svg version="1.1" xmlns="http://www.w3.org/2000/svg" xmlns:xlink="http://www.w3.org/1999/xlink" viewBox="0 0 26.4532 22.3873">
 <g>
  <rect height="22.3873" opacity="0" width="26.4532" x="0" y="0"/>
  <path d="M1.73778 22.1558L3.73414 22.1558C4.84447 22.1558 5.49646 21.452 5.49646 20.6129C5.49646 19.7351 5.03752 19.3548 4.10183 19.2616C3.65365 19.2099 3.6659 18.6825 4.03974 18.6411C6.4255 18.2581 7.874 17.0235 8.15215 14.8901C9.60566 15.9225 12.058 16.0786 14.5191 15.7664C14.5126 17.2007 14.2885 19.1526 14.2885 20.1638C14.2885 21.3673 15.052 22.1558 16.212 22.1558L17.8545 22.1558C18.9731 22.1558 19.6084 21.452 19.6084 20.634C19.6084 19.794 19.2166 19.4282 18.1507 19.2616C17.9266 19.2242 17.8083 19.0829 17.8581 18.8586C18.0408 17.8499 18.6045 15.7614 18.9325 14.8067C19.6029 12.7983 20.5516 11.5138 20.5516 9.4448C20.5516 8.47838 20.8116 7.90577 21.0338 7.65193C21.8125 8.11722 22.3755 8.34934 23.1308 8.34934C24.7975 8.34934 26.4532 6.65104 26.4532 4.8644C26.4532 3.93444 25.6703 3.89245 24.6837 3.27784C23.8323 2.70292 23.345 1.97506 22.5802 1.56023C22.3209 2.82794 21.3518 4.82321 19.6438 4.82321C18.5995 4.82321 17.8398 4.0669 17.3543 3.21343C16.5796 4.2728 16.2665 5.14606 14.2028 5.87322L5.83541 6.51317C5.61706 6.52773 5.43416 6.60251 5.31377 6.65446L4.57838 5.7653C3.39156 4.35017 1.53378 6.02427 2.71466 7.38381L3.52482 8.31457C3.1324 9.27214 2.91042 10.3992 2.91042 11.8352C2.91042 13.9905 2.74842 14.5946 2.10175 15.1185C0.568958 16.3278 0.000575683 17.1333 0.000575683 18.4764L0.000575683 20.3398C0.000575683 21.4087 0.724813 22.1558 1.73778 22.1558ZM23.0726 4.97865C22.726 4.97865 22.4581 4.71295 22.4581 4.36425C22.4581 4.00731 22.726 3.7602 23.0726 3.7602C23.4192 3.7602 23.687 4.00731 23.687 4.36425C23.687 4.71295 23.4192 4.97865 23.0726 4.97865ZM19.6438 3.93355C21.0407 3.93355 21.7611 1.57289 21.7611 0.906932C21.7611 0.313428 21.4519 0 20.8379 0L18.46 0C17.8481 0 17.5285 0.313428 17.5285 0.906932C17.5285 1.57289 18.2489 3.93355 19.6438 3.93355Z" fill="white" fill-opacity="0.85"/>
 </g>
</svg>
